<svg width="91" height="22" viewBox="0 0 91 22" fill="none" xmlns="http://www.w3.org/2000/svg">
<path d="M39.472 5.576L36.56 17H33.808L32.256 11C32.224 10.8827 32.1813 10.7067 32.128 10.472C32.0853 10.2373 32.032 9.98133 31.968 9.704C31.9147 9.42667 31.8667 9.16533 31.824 8.92C31.7813 8.664 31.7493 8.46667 31.728 8.328C31.7173 8.46667 31.6853 8.664 31.632 8.92C31.5893 9.16533 31.5413 9.42667 31.488 9.704C31.4347 9.97067 31.3813 10.2267 31.328 10.472C31.2747 10.7067 31.232 10.888 31.2 11.016L29.664 17H26.912L24 5.576H26.384L27.84 11.816C27.8827 11.9973 27.9307 12.2213 27.984 12.488C28.0373 12.744 28.0907 13.016 28.144 13.304C28.1973 13.5813 28.2453 13.8533 28.288 14.12C28.3413 14.3867 28.3787 14.616 28.4 14.808C28.4213 14.6053 28.4533 14.376 28.496 14.12C28.5387 13.8533 28.5867 13.5867 28.64 13.32C28.6933 13.0427 28.7413 12.7867 28.784 12.552C28.8373 12.3067 28.8853 12.1147 28.928 11.976L30.592 5.576H32.88L34.544 11.976C34.576 12.1147 34.6187 12.3067 34.672 12.552C34.7253 12.7867 34.7787 13.0427 34.832 13.32C34.8853 13.5973 34.9333 13.8693 34.976 14.136C35.0187 14.392 35.0507 14.616 35.072 14.808C35.104 14.5413 35.152 14.2267 35.216 13.864C35.28 13.4907 35.3493 13.1173 35.424 12.744C35.5093 12.3707 35.5787 12.0613 35.632 11.816L37.088 5.576H39.472ZM50.6848 17H44.1088V5.576H50.6848V7.56H46.5248V10.072H50.3968V12.056H46.5248V15H50.6848V17Z" fill="#4222DD"/>
<path d="M59.9099 5.576C61.3819 5.576 62.4539 5.896 63.1259 6.536C63.8085 7.16533 64.1499 8.03467 64.1499 9.144C64.1499 9.64533 64.0752 10.1253 63.9259 10.584C63.7765 11.032 63.5259 11.4373 63.1739 11.8C62.8325 12.152 62.3792 12.4293 61.8139 12.632C61.2485 12.8347 60.5499 12.936 59.7179 12.936H58.6779V17H56.2619V5.576H59.9099ZM59.7819 7.56H58.6779V10.952H59.4779C59.9365 10.952 60.3312 10.8933 60.6619 10.776C60.9925 10.6587 61.2485 10.472 61.4299 10.216C61.6112 9.96 61.7019 9.62933 61.7019 9.224C61.7019 8.65867 61.5472 8.24267 61.2379 7.976C60.9285 7.69867 60.4432 7.56 59.7819 7.56ZM72.9007 8.088C74.0741 8.088 74.9701 8.344 75.5887 8.856C76.2181 9.35733 76.5327 10.1307 76.5327 11.176V17H74.8687L74.4047 15.816H74.3407C74.0954 16.1253 73.8394 16.3813 73.5727 16.584C73.3167 16.7867 73.0181 16.9307 72.6767 17.016C72.3461 17.112 71.9354 17.16 71.4447 17.16C70.9327 17.16 70.4687 17.064 70.0527 16.872C69.6474 16.6693 69.3274 16.3653 69.0927 15.96C68.8581 15.544 68.7407 15.0213 68.7407 14.392C68.7407 13.464 69.0661 12.7813 69.7167 12.344C70.3674 11.896 71.3434 11.6507 72.6447 11.608L74.1647 11.56V11.176C74.1647 10.7173 74.0421 10.3813 73.7967 10.168C73.5621 9.95467 73.2314 9.848 72.8047 9.848C72.3781 9.848 71.9621 9.912 71.5567 10.04C71.1514 10.1573 70.7461 10.3067 70.3407 10.488L69.5567 8.872C70.0261 8.62667 70.5434 8.43467 71.1087 8.296C71.6847 8.15733 72.2821 8.088 72.9007 8.088ZM73.2367 12.984C72.4687 13.0053 71.9354 13.144 71.6367 13.4C71.3381 13.656 71.1887 13.992 71.1887 14.408C71.1887 14.7707 71.2954 15.032 71.5087 15.192C71.7221 15.3413 71.9994 15.416 72.3407 15.416C72.8527 15.416 73.2847 15.2667 73.6367 14.968C73.9887 14.6587 74.1647 14.2267 74.1647 13.672V12.952L73.2367 12.984ZM80.925 8.264H83.533L85.181 13.176C85.2343 13.336 85.277 13.496 85.309 13.656C85.3517 13.816 85.3837 13.9813 85.405 14.152C85.437 14.3227 85.4583 14.504 85.469 14.696H85.517C85.549 14.4187 85.5917 14.1573 85.645 13.912C85.709 13.656 85.7783 13.4107 85.853 13.176L87.469 8.264H90.029L86.333 18.12C86.109 18.7173 85.8157 19.2187 85.453 19.624C85.101 20.0293 84.6903 20.3333 84.221 20.536C83.7517 20.7387 83.2397 20.84 82.685 20.84C82.4183 20.84 82.1837 20.824 81.981 20.792C81.789 20.7707 81.6183 20.744 81.469 20.712V18.824C81.5863 18.8453 81.725 18.8667 81.885 18.888C82.0557 18.9093 82.2317 18.92 82.413 18.92C82.7437 18.92 83.0263 18.8507 83.261 18.712C83.5063 18.5733 83.709 18.3813 83.869 18.136C84.029 17.9013 84.157 17.6453 84.253 17.368L84.397 16.936L80.925 8.264Z" fill="#666666"/>
<path d="M11 22C17.0751 22 22 17.0751 22 11C22 4.92487 17.0751 0 11 0C4.92487 0 0 4.92487 0 11C0 17.0751 4.92487 22 11 22Z" fill="url(#paint0_linear_926_3085)"/>
<path d="M18.3335 11.0072C18.3335 12.9521 17.5609 14.8173 16.1856 16.1926C14.8103 17.5679 12.9451 18.3405 11.0002 18.3405V15.896C12.2968 15.896 13.5403 15.381 14.4571 14.4641C15.374 13.5473 15.8891 12.3038 15.8891 11.0072H11.0002V18.3405C9.05524 18.3405 7.18997 17.5679 5.81471 16.1926C4.43944 14.8173 3.66682 12.9521 3.66682 11.0072C3.66682 9.06224 4.43944 7.19698 5.81471 5.82171C7.18997 4.44644 9.05524 3.67383 11.0002 3.67383V6.11827C9.70354 6.11827 8.46003 6.63335 7.54319 7.55019C6.62634 8.46704 6.11127 9.71055 6.11127 11.0072H18.3335Z" fill="white"/>
<defs>
<linearGradient id="paint0_linear_926_3085" x1="0" y1="0" x2="2200" y2="2200" gradientUnits="userSpaceOnUse">
<stop stop-color="#4222DD"/>
<stop offset="1" stop-color="#4A69BD"/>
</linearGradient>
</defs>
</svg>
