<svg width="321" height="482" viewBox="0 0 321 482" fill="none" xmlns="http://www.w3.org/2000/svg">
<path fill-rule="evenodd" clip-rule="evenodd" d="M320.955 35.6618C320.955 55.3572 304.989 71.3235 285.294 71.3235C265.599 71.3235 249.632 55.3572 249.632 35.6618C249.632 15.9663 265.599 0 285.294 0C304.989 0 320.955 15.9663 320.955 35.6618ZM160.478 360.003C249.108 360.003 320.955 288.154 320.955 199.524C320.955 110.895 249.108 39.0469 160.478 39.0469C71.8485 39.0469 0 110.895 0 199.524C0 288.154 71.8485 360.003 160.478 360.003ZM160.478 292.427C209.716 292.427 249.632 252.511 249.632 203.272C249.632 154.034 209.716 114.118 160.478 114.118C111.239 114.118 71.3235 154.034 71.3235 203.272C71.3235 252.511 111.239 292.427 160.478 292.427ZM10.6985 402.783L78.4559 374.253C85.5882 398.028 105.306 414.65 160.478 384.953C253.199 335.044 293.863 388.532 306.692 409.916C313.824 421.803 325.949 450.573 317.39 470.545L246.067 459.845C247.255 447.958 242.479 427.761 206.838 445.581C197.949 450.026 190.29 454.162 183.321 457.929C156.733 472.292 140.15 481.251 103.419 481.243C60.625 481.254 35.6618 456.47 10.6985 402.783Z" fill="url(#paint0_linear_1543_360)"/>
<defs>
<linearGradient id="paint0_linear_1543_360" x1="320.955" y1="-21.3973" x2="231.801" y2="698.976" gradientUnits="userSpaceOnUse">
<stop stop-color="#4222DD"/>
<stop offset="1" stop-color="#F31091" stop-opacity="0.45"/>
</linearGradient>
</defs>
</svg>
