<svg width="268" height="48" viewBox="0 0 268 48" fill="none" xmlns="http://www.w3.org/2000/svg">
<path d="M71.047 12.1761H74.647V23.5761C74.647 23.929 74.635 24.2819 74.6117 24.6349C74.5884 24.9878 74.5178 25.4819 74.4 26.1172C74.2821 26.729 74.1176 27.2937 73.9058 27.8114C73.7174 28.329 73.4237 28.8937 73.0235 29.5055C72.6233 30.0937 72.1411 30.5996 71.5764 31.0231C71.035 31.4231 70.3293 31.7643 69.4588 32.0466C68.6117 32.329 67.6588 32.4702 66.6 32.4702C65.5176 32.4702 64.3646 32.176 63.1411 31.5878C61.9411 30.976 61.0706 30.1173 60.5294 29.0114C60.5059 29.1054 60.447 29.2349 60.3529 29.3996C60.2588 29.5408 60.0353 29.8113 59.6823 30.2114C59.3529 30.6114 58.9764 30.9643 58.5529 31.2702C58.1529 31.5525 57.5882 31.8231 56.8588 32.0819C56.1294 32.3408 55.3411 32.4702 54.4941 32.4702C53.4353 32.4702 52.4705 32.329 51.6 32.0466C50.7529 31.7643 50.047 31.4231 49.4823 31.0231C48.9411 30.5996 48.4706 30.0937 48.0705 29.5055C47.6705 28.8937 47.3647 28.329 47.1529 27.8114C46.9646 27.2937 46.8117 26.729 46.6941 26.1172C46.5764 25.4819 46.5058 24.9878 46.4823 24.6349C46.4588 24.2819 46.447 23.929 46.447 23.5761V12.1761H50.047V23.5761C50.047 23.9761 50.0705 24.376 50.1176 24.7761C50.1647 25.1525 50.2823 25.5996 50.4705 26.1172C50.6588 26.6349 50.9059 27.082 51.2117 27.4584C51.5176 27.8349 51.9764 28.1643 52.5882 28.4466C53.2 28.7055 53.9059 28.8349 54.7058 28.8349C55.4117 28.8349 56.0235 28.7055 56.5411 28.4466C57.0588 28.1643 57.447 27.8349 57.7058 27.4584C57.9882 27.082 58.2 26.6349 58.3411 26.1172C58.5058 25.5996 58.6117 25.1525 58.6588 24.7761C58.7059 24.376 58.7294 23.9761 58.7294 23.5761V17.5761H62.3647V23.5761C62.3647 23.9761 62.3765 24.376 62.4 24.7761C62.447 25.1525 62.5529 25.5996 62.7176 26.1172C62.8823 26.6349 63.0941 27.082 63.3529 27.4584C63.6353 27.8349 64.0353 28.1643 64.5529 28.4466C65.0705 28.7055 65.6823 28.8349 66.3882 28.8349C67.1882 28.8349 67.8823 28.7055 68.4705 28.4466C69.0823 28.1643 69.5412 27.8349 69.847 27.4584C70.1765 27.082 70.4352 26.6349 70.6235 26.1172C70.812 25.5996 70.9291 25.1525 70.9764 24.7761C71.0237 24.3996 71.047 23.9996 71.047 23.5761V12.1761ZM102.039 16.5525C102.65 17.4937 103.098 18.5172 103.38 19.6231C103.662 20.729 103.803 22.1996 103.803 24.0349L83.6858 23.9996C83.568 23.3643 83.5094 22.7878 83.5094 22.2702C83.5094 21.0702 83.7324 19.8702 84.18 18.6702C84.9324 16.7172 86.1797 15.1408 87.9211 13.9408C89.6858 12.7408 91.615 12.1408 93.7094 12.1408C95.1211 12.1408 96.6035 12.4819 98.1564 13.1643C99.6621 13.8467 100.956 14.9761 102.039 16.5525ZM87.3211 20.7525H100.027L99.7447 19.9408C99.4383 19.0937 98.9562 18.3525 98.2976 17.7172C97.6623 17.0584 96.8971 16.5643 96.0035 16.2349C95.2976 15.9525 94.5324 15.8114 93.7094 15.8114C92.3682 15.8114 91.1329 16.1878 90.0035 16.9408C88.8741 17.6702 88.0623 18.682 87.5682 19.9761L87.3211 20.7525ZM91.3094 28.4114C91.9207 28.6466 92.6033 28.7761 93.3564 28.7996L101.474 28.7643V32.5055C97.3327 32.482 94.7209 32.4702 93.6388 32.4702C92.1797 32.4702 90.6974 32.1172 89.1917 31.4114C87.6854 30.729 86.3915 29.5878 85.3094 27.9878C85.2854 27.9407 85.2501 27.8819 85.2035 27.8114C85.1562 27.7173 85.1209 27.6584 85.0976 27.6349H89.8976C90.3917 27.9643 90.8618 28.2231 91.3094 28.4114ZM127.926 13.5172C129.479 14.4114 130.714 15.6467 131.631 17.2231C132.549 18.7761 133.008 20.4702 133.008 22.3055C133.008 24.1173 132.561 25.8114 131.667 27.3878C130.726 28.9408 129.467 30.1761 127.89 31.0937C126.314 32.0114 124.631 32.4702 122.843 32.4702C122.019 32.4702 121.161 32.3525 120.267 32.1172V27.9878C121.067 28.3643 121.926 28.5525 122.843 28.5525C123.973 28.5525 125.019 28.2702 125.984 27.7055C126.949 27.1408 127.702 26.3878 128.243 25.4466C128.808 24.4819 129.09 23.4349 129.09 22.3055C129.09 21.1996 128.808 20.1643 128.243 19.1996C127.679 18.2349 126.914 17.482 125.949 16.9408C125.008 16.3761 123.973 16.0937 122.843 16.0937C121.737 16.0937 120.702 16.3761 119.737 16.9408C118.772 17.482 118.008 18.2349 117.443 19.1996C116.902 20.1407 116.631 21.1761 116.631 22.3055L116.667 35.4702H112.679V21.9878C112.679 20.1996 113.137 18.5643 114.055 17.0819C114.996 15.5525 116.243 14.3525 117.796 13.4819C119.349 12.5878 121.031 12.1408 122.843 12.1408C124.679 12.1408 126.373 12.5996 127.926 13.5172ZM160.566 17.0114C161.483 18.5408 161.942 20.1878 161.942 21.9525L161.907 32.2937H158.307V22.2702C158.307 21.0937 158 20.0114 157.389 19.0231C156.8 18.0114 156.013 17.2113 155.024 16.6231C154.036 16.0349 152.953 15.7408 151.777 15.7408C150.624 15.7408 149.542 16.0349 148.53 16.6231C147.518 17.2113 146.73 17.9996 146.166 18.9878C145.554 19.9526 145.248 21.0467 145.248 22.2702C145.248 23.4231 145.542 24.5055 146.13 25.5172C146.718 26.5055 147.507 27.2937 148.495 27.8819C149.459 28.4702 150.553 28.7643 151.777 28.7643C152.766 28.7643 153.73 28.529 154.671 28.0584V31.9761C153.707 32.2819 152.742 32.4349 151.777 32.4349C149.942 32.4349 148.248 31.9761 146.695 31.0584C145.142 30.1408 143.907 28.8937 142.989 27.3172C142.071 25.7878 141.613 24.1055 141.613 22.2702C141.613 20.4349 142.071 18.7408 142.989 17.1878C143.907 15.6114 145.153 14.3643 146.73 13.4466C148.259 12.5525 149.942 12.1055 151.777 12.1055C153.565 12.1055 155.236 12.5525 156.789 13.4466C158.365 14.3172 159.624 15.5055 160.566 17.0114ZM182.37 32.4702H178.029V28.1996H182.37V32.4702ZM189.464 12.1761L189.57 15.9525C189.57 17.6702 189.135 19.2114 188.264 20.5761C187.417 21.9407 186.253 22.9996 184.77 23.7525C184.018 24.129 183.217 24.4113 182.37 24.5996H177.994C177.123 24.4113 176.312 24.1173 175.559 23.7172C174.147 22.9878 173.006 21.9525 172.135 20.6114C171.265 19.2467 170.829 17.6937 170.829 15.9525V12.1761H174.429V15.9525C174.429 17.5761 174.994 18.8584 176.123 19.7996C177.229 20.7172 178.583 21.1761 180.182 21.1761C181.735 21.1761 183.065 20.7172 184.17 19.7996C185.3 18.8584 185.864 17.5761 185.864 15.9525V12.1761H189.464Z" fill="black"/>
<path fill-rule="evenodd" clip-rule="evenodd" d="M31.7647 3.52941C31.7647 5.47865 30.1845 7.05882 28.2353 7.05882C26.2861 7.05882 24.7059 5.47865 24.7059 3.52941C24.7059 1.58017 26.2861 0 28.2353 0C30.1845 0 31.7647 1.58017 31.7647 3.52941ZM15.8823 35.6291C24.6539 35.6291 31.7647 28.5184 31.7647 19.7468C31.7647 10.9752 24.6539 3.86443 15.8823 3.86443C7.11077 3.86443 0 10.9752 0 19.7468C0 28.5184 7.11077 35.6291 15.8823 35.6291ZM15.8823 28.9412C20.7555 28.9412 24.7059 24.9908 24.7059 20.1176C24.7059 15.2445 20.7555 11.2941 15.8823 11.2941C11.0092 11.2941 7.05882 15.2445 7.05882 20.1176C7.05882 24.9908 11.0092 28.9412 15.8823 28.9412ZM1.05882 39.8631L7.7647 37.0396C8.47059 39.3925 10.422 41.0375 15.8823 38.0984C25.0588 33.159 29.0833 38.4527 30.3529 40.569C31.0588 41.7455 32.2588 44.5928 31.4118 46.5693L24.3529 45.5105C24.4706 44.334 23.9979 42.335 20.4706 44.0987C19.5908 44.5386 18.8329 44.948 18.143 45.3208C15.5117 46.7423 13.8704 47.6291 10.2353 47.6281C6 47.6293 3.52941 45.1765 1.05882 39.8631Z" fill="white"/>
<path fill-rule="evenodd" clip-rule="evenodd" d="M31.7647 3.52941C31.7647 5.47865 30.1845 7.05882 28.2353 7.05882C26.2861 7.05882 24.7059 5.47865 24.7059 3.52941C24.7059 1.58017 26.2861 0 28.2353 0C30.1845 0 31.7647 1.58017 31.7647 3.52941ZM15.8823 35.6291C24.6539 35.6291 31.7647 28.5184 31.7647 19.7468C31.7647 10.9752 24.6539 3.86443 15.8823 3.86443C7.11077 3.86443 0 10.9752 0 19.7468C0 28.5184 7.11077 35.6291 15.8823 35.6291ZM15.8823 28.9412C20.7555 28.9412 24.7059 24.9908 24.7059 20.1176C24.7059 15.2445 20.7555 11.2941 15.8823 11.2941C11.0092 11.2941 7.05882 15.2445 7.05882 20.1176C7.05882 24.9908 11.0092 28.9412 15.8823 28.9412ZM1.05882 39.8631L7.7647 37.0396C8.47059 39.3925 10.422 41.0375 15.8823 38.0984C25.0588 33.159 29.0833 38.4527 30.3529 40.569C31.0588 41.7455 32.2588 44.5928 31.4118 46.5693L24.3529 45.5105C24.4706 44.334 23.9979 42.335 20.4706 44.0987C19.5908 44.5386 18.8329 44.948 18.143 45.3208C15.5117 46.7423 13.8704 47.6291 10.2353 47.6281C6 47.6293 3.52941 45.1765 1.05882 39.8631Z" fill="url(#paint0_linear_1239_311)"/>
<defs>
<linearGradient id="paint0_linear_1239_311" x1="31.7647" y1="-2.11767" x2="22.941" y2="69.177" gradientUnits="userSpaceOnUse">
<stop stop-color="#4222DD"/>
<stop offset="1" stop-color="#F31091" stop-opacity="0.45"/>
</linearGradient>
</defs>
</svg>
